<?xml version="1.0" standalone="no"?>
<!DOCTYPE svg PUBLIC "-//W3C//DTD SVG 20010904//EN"
 "http://www.w3.org/TR/2001/REC-SVG-20010904/DTD/svg10.dtd">
<svg version="1.0" xmlns="http://www.w3.org/2000/svg"
 width="1280.000000pt" height="1031.000000pt" viewBox="0 0 1280.000000 1031.000000"
 preserveAspectRatio="xMidYMid meet">

<g transform="translate(0.000000,1031.000000) scale(0.100000,-0.100000)"
fill="#000000" stroke="none">
<path d="M4810 10209 c-124 -3 -254 -9 -290 -13 -36 -4 -101 -9 -145 -12 -113
-8 -129 -10 -325 -39 -177 -26 -601 -108 -647 -126 -13 -5 -28 -7 -33 -4 -5 3
-11 1 -14 -4 -3 -5 -23 -12 -43 -16 -21 -3 -82 -20 -136 -36 -54 -17 -107 -31
-118 -32 -10 -1 -19 -4 -19 -7 0 -7 -99 -35 -117 -34 -7 1 -13 -3 -13 -8 0 -6
-7 -8 -15 -4 -8 3 -15 2 -15 -2 0 -4 -26 -16 -57 -27 -32 -10 -71 -24 -88 -31
-200 -81 -293 -117 -308 -118 -10 -1 -21 -6 -25 -12 -7 -11 -53 -29 -61 -25
-2 2 -7 -2 -10 -7 -7 -11 -91 -55 -91 -47 0 3 -18 -6 -40 -20 -23 -14 -46 -23
-52 -19 -7 5 -8 3 -3 -6 6 -10 4 -12 -11 -6 -10 4 -15 4 -12 0 4 -4 -21 -21
-55 -39 -34 -18 -97 -53 -139 -78 -43 -25 -78 -44 -78 -41 0 3 -14 -6 -31 -20
-17 -14 -37 -26 -45 -26 -8 0 -14 -5 -14 -11 0 -5 -4 -8 -9 -5 -5 4 -11 3 -13
-2 -5 -12 -101 -75 -115 -75 -7 0 -10 -4 -7 -9 3 -4 0 -8 -5 -8 -22 0 -26 -2
-33 -14 -4 -6 -33 -30 -65 -51 -32 -22 -59 -43 -61 -47 -2 -5 -10 -8 -17 -8
-7 0 -15 -3 -17 -7 -5 -13 -157 -133 -167 -133 -5 0 -12 -7 -15 -16 -3 -8 -11
-12 -16 -9 -6 4 -9 3 -8 -2 2 -5 -28 -36 -67 -70 -98 -85 -265 -251 -360 -358
-44 -50 -86 -94 -93 -98 -7 -5 -10 -12 -7 -17 3 -5 -3 -15 -13 -22 -10 -7 -21
-21 -25 -31 -4 -11 -12 -15 -18 -11 -8 4 -9 3 -5 -4 4 -6 -5 -22 -19 -34 -15
-13 -33 -38 -41 -56 -8 -21 -18 -31 -25 -26 -7 4 -9 3 -5 -4 3 -6 -1 -17 -9
-25 -8 -9 -15 -18 -15 -22 0 -15 -48 -74 -55 -67 -5 4 -5 1 -1 -6 5 -7 2 -21
-7 -30 -8 -9 -34 -51 -57 -92 -24 -41 -46 -77 -49 -80 -3 -3 -7 -12 -9 -20 -2
-8 -11 -23 -19 -32 -9 -10 -12 -18 -7 -18 5 0 4 -4 -1 -8 -9 -6 -38 -62 -36
-69 0 -2 -11 -29 -25 -60 -14 -32 -32 -71 -39 -88 -30 -70 -64 -167 -94 -270
-18 -60 -35 -117 -38 -125 -3 -8 -7 -22 -8 -30 -1 -8 -7 -40 -14 -70 -67 -320
-69 -752 -5 -1085 16 -84 49 -213 64 -255 6 -14 11 -34 13 -45 2 -11 8 -31 14
-45 6 -14 25 -65 43 -115 31 -84 87 -214 112 -260 35 -62 87 -163 85 -166 -1
-2 0 -3 2 -2 5 3 43 -57 45 -72 1 -5 12 -23 24 -40 12 -16 22 -34 21 -39 0 -5
3 -12 8 -15 24 -17 62 -74 56 -84 -3 -7 -3 -9 2 -5 4 4 26 -18 48 -50 22 -31
58 -78 79 -103 20 -25 36 -48 35 -50 -1 -2 0 -3 2 -2 6 4 46 -51 43 -60 -1 -5
2 -6 7 -3 5 3 16 -5 25 -18 8 -14 31 -40 51 -59 19 -19 35 -36 35 -39 0 -3 46
-49 102 -104 138 -135 159 -154 209 -196 24 -19 57 -47 72 -62 15 -14 37 -30
48 -36 11 -6 16 -16 13 -22 -4 -6 -3 -8 2 -5 5 3 27 -10 49 -29 22 -19 59 -46
83 -61 23 -15 42 -31 42 -35 0 -4 5 -8 11 -8 10 0 69 -41 96 -66 7 -7 9 -15 5
-18 -3 -4 1 -4 11 0 10 3 17 1 17 -6 0 -6 4 -9 9 -6 4 3 17 -4 27 -15 11 -12
28 -25 40 -29 11 -5 59 -33 107 -64 l86 -56 -21 -50 c-11 -27 -25 -50 -30 -50
-5 0 -6 -5 -3 -10 4 -6 0 -21 -8 -33 -8 -12 -15 -26 -17 -32 -2 -9 -41 -83
-76 -145 -6 -11 -14 -17 -18 -13 -4 4 -4 -1 0 -11 5 -12 4 -17 -3 -13 -5 3
-10 0 -10 -7 0 -16 -65 -126 -75 -126 -5 0 -8 -5 -8 -11 0 -13 -48 -79 -74
-101 -12 -10 -17 -18 -13 -18 4 0 3 -6 -2 -13 -6 -6 -42 -51 -79 -98 -98 -121
-105 -129 -114 -123 -5 3 -7 1 -6 -4 4 -14 -62 -93 -73 -86 -5 3 -8 2 -7 -3 4
-11 -221 -263 -235 -263 -6 0 -8 -3 -4 -6 5 -6 -18 -37 -58 -77 -11 -11 -13
-16 -5 -12 11 6 10 3 -3 -12 -9 -11 -22 -44 -29 -74 -21 -105 22 -211 111
-274 41 -29 47 -30 144 -29 95 0 192 13 377 50 95 19 234 51 281 66 20 6 43 7
49 3 9 -6 11 -4 5 4 -5 9 -1 12 11 10 11 -2 28 2 39 7 11 6 58 21 105 34 47
12 100 29 118 37 18 8 36 12 41 8 5 -3 11 -2 13 3 1 4 46 23 98 41 177 62 499
193 581 237 14 7 29 11 33 7 3 -3 6 -2 6 4 0 14 49 35 62 27 7 -4 8 -2 4 4 -6
11 6 16 27 13 4 0 7 3 7 8 0 10 39 27 53 23 4 -1 7 2 7 7 0 5 26 22 58 38 31
17 77 41 102 53 25 13 64 36 87 52 23 15 47 28 53 28 6 0 18 6 25 14 8 7 56
40 107 72 51 32 104 66 117 76 13 10 28 15 34 11 5 -3 8 -2 4 3 -3 5 11 20 30
33 19 12 32 17 28 9 -4 -7 2 -2 13 11 l20 25 138 -22 c77 -13 193 -29 259 -38
66 -8 138 -17 160 -20 45 -6 63 -8 370 -25 197 -10 664 -7 815 6 328 30 325
29 475 50 139 20 319 51 410 71 39 9 81 17 95 19 14 3 43 9 65 14 22 5 51 12
65 15 64 13 330 89 460 133 80 26 151 47 158 46 6 0 12 4 12 9 0 6 7 8 15 4 8
-3 15 -2 15 2 0 5 24 16 53 27 28 10 121 47 206 82 85 35 159 65 165 66 6 1
13 5 16 8 8 10 163 84 177 84 6 0 19 7 30 16 10 9 52 34 93 55 41 21 92 48
113 61 20 13 37 20 37 16 0 -5 4 -3 8 3 9 13 86 63 104 66 7 2 19 10 26 18 12
13 13 13 7 0 -4 -10 -2 -9 8 2 8 10 19 18 25 18 6 0 12 4 14 8 3 9 195 142
204 142 3 0 12 7 21 15 8 8 19 12 25 9 7 -4 8 -2 4 4 -4 7 11 23 36 39 24 15
45 32 47 36 1 4 19 18 40 31 20 13 67 52 105 87 39 35 66 58 62 51 -4 -7 17
11 47 40 30 29 86 83 123 119 80 76 201 209 270 294 26 33 51 62 54 65 4 3 20
24 37 47 17 23 33 39 37 36 3 -3 7 -1 7 5 1 7 2 15 3 20 1 4 31 49 66 101 36
52 81 122 100 157 19 34 44 72 54 83 11 12 16 21 12 21 -9 0 64 143 78 152 6
4 8 8 4 8 -4 0 14 46 39 103 25 56 46 109 48 117 2 8 17 53 33 100 123 350
169 776 127 1170 -22 209 -81 464 -150 647 -14 36 -22 69 -19 74 3 5 1 9 -4 9
-5 0 -15 15 -23 33 -7 17 -27 63 -46 101 -18 38 -30 72 -27 77 3 5 0 9 -6 9
-6 0 -8 5 -5 10 3 6 2 10 -3 10 -5 0 -24 27 -41 60 -18 33 -29 60 -26 60 4 0
0 7 -8 15 -8 8 -25 31 -37 52 -44 74 -145 228 -154 234 -5 4 -5 13 -1 20 5 8
5 11 0 7 -7 -7 -37 26 -75 82 -18 26 -40 52 -86 103 -19 20 -32 37 -29 37 4 0
-11 17 -32 39 -52 53 -68 74 -65 84 1 5 -1 6 -6 3 -10 -6 -68 54 -64 67 1 4
-1 6 -6 3 -12 -7 -84 68 -75 78 5 4 3 6 -3 4 -6 -2 -29 15 -52 37 -41 40 -94
87 -145 125 -15 12 -24 26 -21 32 4 7 2 8 -4 4 -11 -6 -40 15 -101 74 -14 14
-40 35 -57 45 -88 56 -114 77 -108 87 4 7 3 8 -5 4 -11 -7 -57 22 -93 57 -7 7
-16 13 -20 13 -3 -1 -19 10 -35 24 -15 13 -29 23 -30 22 -8 -6 -22 1 -51 28
-18 16 -35 30 -37 30 -21 2 -93 46 -88 53 3 6 1 7 -6 3 -7 -5 -27 4 -46 18
-19 15 -38 27 -42 27 -5 0 -35 15 -68 34 -71 40 -277 142 -352 175 -29 13 -49
28 -46 33 3 6 1 7 -5 3 -7 -4 -18 -4 -24 1 -7 4 -15 8 -18 8 -3 0 -75 29 -161
63 -86 34 -158 62 -161 62 -3 0 -23 8 -44 17 -22 9 -43 17 -49 19 -5 1 -53 16
-105 32 -52 17 -144 45 -205 62 -60 17 -140 40 -178 51 -37 12 -78 22 -91 23
-12 2 -27 6 -33 9 -5 3 -27 8 -49 11 -21 2 -83 14 -137 25 -473 99 -1026 145
-1577 130z"/>
<path d="M10817 7581 c8 -31 17 -63 18 -71 2 -8 9 -31 15 -50 26 -86 70 -319
91 -479 51 -400 15 -956 -87 -1321 -8 -30 -17 -66 -20 -79 -14 -66 -121 -380
-133 -391 -4 -3 -7 -12 -9 -20 -2 -8 -9 -28 -16 -45 -72 -162 -94 -208 -138
-293 -51 -100 -226 -386 -279 -457 -16 -22 -40 -56 -53 -75 -13 -19 -35 -48
-49 -65 -14 -16 -46 -56 -70 -87 -24 -32 -47 -55 -51 -51 -3 3 -6 1 -6 -6 0
-21 -121 -162 -132 -155 -6 4 -8 3 -5 -3 7 -12 -28 -44 -39 -35 -4 4 -4 2 -1
-4 8 -14 -17 -37 -28 -26 -5 4 -5 2 -1 -5 8 -15 -253 -275 -267 -266 -6 3 -7
1 -4 -4 8 -12 -63 -70 -78 -65 -5 2 -7 0 -3 -4 8 -8 -31 -46 -41 -40 -3 2 -15
-6 -26 -17 -11 -11 -13 -17 -5 -12 8 4 -1 -6 -20 -23 -19 -17 -38 -31 -42 -32
-4 0 -20 -12 -35 -26 -61 -55 -67 -60 -58 -44 4 8 -3 3 -16 -11 -26 -29 -204
-161 -214 -159 -3 0 -12 -5 -20 -12 -26 -23 -39 -33 -113 -81 -39 -26 -84 -53
-100 -60 -15 -6 -32 -17 -39 -23 -7 -7 -33 -22 -58 -34 -25 -12 -45 -25 -45
-28 0 -4 -39 -27 -87 -52 -49 -25 -91 -49 -94 -54 -4 -5 -12 -5 -19 -1 -8 5
-11 4 -7 -2 6 -10 -50 -40 -65 -35 -5 1 -8 -2 -8 -6 0 -14 -60 -43 -73 -36 -6
4 -9 4 -5 -1 10 -11 -110 -68 -124 -59 -6 4 -8 3 -5 -3 8 -13 -20 -26 -35 -16
-6 3 -8 2 -5 -4 6 -9 -150 -80 -165 -75 -5 1 -8 -3 -8 -9 0 -5 -4 -8 -9 -5 -5
4 -11 2 -13 -2 -3 -10 -185 -84 -210 -87 -9 0 -22 -6 -30 -11 -24 -19 -107
-46 -119 -38 -8 4 -9 3 -5 -4 4 -7 1 -13 -8 -13 -21 -2 -25 -3 -61 -18 -16 -7
-66 -24 -110 -37 -44 -14 -84 -26 -90 -28 -5 -2 -17 -6 -25 -9 -25 -10 -182
-56 -245 -71 -33 -8 -123 -31 -200 -50 -77 -20 -160 -38 -185 -41 -25 -4 -56
-10 -70 -15 -14 -5 -41 -11 -60 -14 -35 -6 -132 -22 -180 -31 -100 -19 -514
-73 -560 -73 -8 0 -62 -6 -120 -12 -162 -17 -817 -24 -1000 -10 -214 16 -224
16 -233 12 -11 -5 46 -58 72 -67 23 -7 225 -125 248 -145 7 -6 14 -10 15 -9 9
7 77 -35 71 -44 -3 -6 -1 -7 5 -3 12 7 72 -20 84 -38 4 -6 8 -7 8 -3 0 4 40
-13 88 -38 49 -25 91 -45 95 -45 3 0 38 -15 79 -34 86 -40 151 -69 158 -70 48
-13 60 -18 60 -26 0 -5 7 -6 17 -3 12 5 14 3 8 -7 -5 -8 -4 -11 2 -7 13 8 133
-32 133 -45 0 -5 4 -7 9 -4 11 7 103 -25 113 -39 4 -5 10 -7 13 -3 4 4 26 0
48 -8 113 -41 428 -124 637 -168 41 -8 111 -23 155 -32 44 -10 88 -17 98 -16
9 0 17 -4 17 -9 0 -6 4 -8 9 -5 8 5 65 -2 241 -28 19 -3 134 -15 255 -27 177
-18 291 -22 585 -23 201 0 408 3 460 7 319 25 516 47 710 81 100 18 149 14
171 -13 9 -11 19 -18 22 -15 2 3 19 -10 38 -28 18 -18 30 -27 25 -21 -4 7 19
-4 51 -25 32 -21 86 -56 121 -77 34 -21 62 -42 62 -46 0 -5 7 -9 15 -9 21 0
125 -60 125 -72 0 -5 5 -6 10 -3 6 3 10 1 10 -4 0 -6 8 -11 18 -11 10 0 22 -4
27 -9 6 -5 40 -25 77 -44 37 -19 65 -37 62 -40 -3 -3 1 -4 8 -4 7 1 67 -25
133 -57 122 -60 127 -63 146 -65 5 0 7 -6 3 -13 -4 -7 -3 -8 4 -4 6 4 31 -3
54 -16 45 -23 49 -25 72 -27 8 0 21 -7 28 -15 8 -7 36 -20 63 -29 51 -15 319
-111 365 -130 14 -5 34 -12 45 -14 11 -2 54 -14 95 -27 103 -33 327 -92 430
-113 47 -10 87 -21 88 -25 2 -5 8 -6 12 -3 5 3 62 -4 127 -16 148 -27 308 -31
343 -8 14 9 28 16 32 15 10 -1 55 60 80 109 14 26 22 64 24 107 2 58 -1 74
-27 122 -16 30 -42 68 -57 84 -15 16 -50 55 -77 87 -28 31 -60 68 -73 81 -13
13 -20 24 -17 24 3 0 -19 23 -49 51 -31 29 -53 56 -49 63 3 6 3 8 -2 4 -8 -8
-8 -8 -87 83 -32 37 -54 70 -50 74 4 5 2 5 -4 2 -9 -5 -51 39 -56 60 -1 5 -13
17 -25 29 -12 12 -20 24 -16 27 3 4 1 7 -5 7 -12 0 -98 119 -95 132 2 4 -1 8
-6 8 -11 0 -85 116 -80 124 2 3 -4 11 -13 18 -21 16 -178 330 -178 356 0 18
28 52 43 52 4 0 31 16 61 35 29 19 56 31 60 28 3 -4 6 -2 6 4 0 5 28 28 63 51
34 23 103 71 152 107 50 35 106 76 125 89 19 13 46 33 59 45 13 11 28 18 34
14 6 -3 7 -1 3 5 -4 6 16 29 46 52 81 65 214 187 292 270 39 41 97 101 129
132 32 32 55 58 51 58 -4 0 -1 6 8 12 8 7 44 49 78 93 34 44 66 82 70 85 3 3
15 20 25 38 11 17 22 32 26 32 4 0 9 9 12 21 3 12 10 18 16 14 7 -3 8 0 5 9
-4 9 0 18 9 22 8 3 18 17 21 30 4 14 11 22 17 19 5 -4 9 -3 8 2 -3 12 11 43
46 98 89 140 275 541 275 592 0 7 5 13 11 13 5 0 8 4 5 8 -3 5 2 31 10 58 13
42 45 165 60 229 3 11 16 90 29 175 45 279 33 677 -29 960 -24 115 -73 283
-105 365 -17 44 -31 83 -31 88 0 12 -23 63 -91 198 -32 64 -55 120 -51 124 4
5 1 5 -5 1 -7 -4 -13 -2 -13 4 0 6 -18 41 -39 78 -22 37 -53 89 -68 115 -15
27 -33 55 -40 62 -7 7 -9 15 -6 19 4 3 2 6 -4 6 -5 0 -25 24 -44 53 -18 28
-43 60 -54 69 -11 10 -16 17 -11 18 6 0 1 7 -10 16 -10 8 -12 13 -4 9 8 -4 3
3 -13 15 -15 12 -24 26 -21 31 3 5 0 8 -8 7 -7 -2 -12 3 -10 10 1 6 -2 12 -7
12 -5 0 -30 26 -56 58 -26 31 -68 79 -93 107 -26 27 -46 54 -44 60 2 5 0 7 -4
3 -3 -4 -46 32 -94 80 -48 48 -120 116 -159 152 -40 36 -85 78 -101 93 -16 15
-31 26 -33 25 -3 -2 -22 12 -43 29 -42 35 -93 74 -164 125 -25 17 -51 39 -58
47 -11 13 -12 14 -7 1 4 -10 2 -9 -8 3 -8 9 -19 17 -25 17 -6 0 -17 8 -24 18
-7 9 -20 18 -28 20 -8 2 -22 9 -30 16 -8 7 -65 43 -125 79 -61 36 -119 75
-129 86 -10 11 -24 17 -34 14 -8 -4 -13 -2 -10 3 4 5 -4 10 -17 10 l-23 2 15
-57z"/>
<path d="M1070 4276 c0 -2 8 -10 18 -17 15 -13 16 -12 3 4 -13 16 -21 21 -21
13z"/>
</g>
</svg>
